<svg width="5" height="10" viewBox="0 0 5 10" fill="none" xmlns="http://www.w3.org/2000/svg">
<path d="M4.66677 4.99998C4.66707 5.15575 4.61282 5.30671 4.51343 5.42665L1.1801 9.42665C1.06694 9.56279 0.904335 9.64841 0.728051 9.66466C0.551767 9.68091 0.376247 9.62647 0.240102 9.51331C0.103958 9.40015 0.0183417 9.23755 0.00208856 9.06126C-0.0141646 8.88498 0.0402763 8.70946 0.153435 8.57331L3.1401 4.99998L0.260102 1.42665C0.204725 1.35846 0.16337 1.27999 0.138416 1.19577C0.113461 1.11154 0.105399 1.02321 0.114692 0.93586C0.123984 0.848508 0.150449 0.763852 0.192565 0.686762C0.234681 0.609671 0.291617 0.541662 0.360102 0.486648C0.428649 0.425594 0.509067 0.379355 0.596316 0.350826C0.683565 0.322298 0.775766 0.312097 0.867141 0.320858C0.958517 0.32962 1.0471 0.357158 1.12734 0.401747C1.20757 0.446335 1.27774 0.507014 1.33343 0.579982L4.55343 4.57998C4.63711 4.70337 4.67701 4.85125 4.66677 4.99998Z" fill="white"/>
</svg>
