<svg width="9" height="16" viewBox="0 0 9 16" fill="none" xmlns="http://www.w3.org/2000/svg">
<path d="M1.0007 7.99976C1.00025 7.7661 1.08162 7.53967 1.2307 7.35976L6.2307 1.35976C6.40044 1.15554 6.64435 1.02712 6.90878 1.00274C7.1732 0.978356 7.43648 1.06002 7.6407 1.22976C7.84492 1.3995 7.97334 1.64341 7.99772 1.90783C8.0221 2.17226 7.94044 2.43554 7.7707 2.63976L3.2907 7.99976L7.6107 13.3598C7.69377 13.462 7.7558 13.5797 7.79323 13.7061C7.83066 13.8324 7.84276 13.9649 7.82882 14.0959C7.81488 14.227 7.77518 14.3539 7.71201 14.4696C7.64883 14.5852 7.56343 14.6872 7.4607 14.7698C7.35788 14.8613 7.23725 14.9307 7.10638 14.9735C6.97551 15.0163 6.8372 15.0316 6.70014 15.0184C6.56308 15.0053 6.43021 14.964 6.30985 14.8971C6.18949 14.8302 6.08425 14.7392 6.0007 14.6298L1.1707 8.62976C1.04519 8.44467 0.985332 8.22286 1.0007 7.99976Z" fill="#AFB2C4"/>
</svg>
