<svg width="20" height="18" viewBox="0 0 20 18" fill="none" xmlns="http://www.w3.org/2000/svg">
<path d="M10.0002 17.6487C9.89908 17.6487 9.79794 17.6225 9.70732 17.5702C9.60888 17.5134 7.27017 16.1555 4.89791 14.1095C3.4919 12.8969 2.36956 11.6941 1.56214 10.5348C0.517297 9.03454 -0.00813146 7.5915 0.000345081 6.24568C0.0102669 4.67967 0.571164 3.20694 1.57983 2.09874C2.60554 0.971864 3.97436 0.351318 5.43424 0.351318C7.30521 0.351318 9.0158 1.39936 10.0003 3.05959C10.9848 1.3994 12.6954 0.351318 14.5663 0.351318C15.9455 0.351318 17.2614 0.911239 18.2718 1.92796C19.3805 3.0437 20.0105 4.62018 20.0002 6.2531C19.9916 7.59658 19.4564 9.03743 18.4092 10.5356C17.5993 11.6944 16.4785 12.8966 15.078 14.1088C12.7144 16.1546 10.3925 17.5125 10.2948 17.5693C10.2038 17.6222 10.102 17.6487 10.0002 17.6487Z" fill="#FFE1DD"/>
</svg>
