<svg width="20" height="20" viewBox="0 0 20 20" fill="none" xmlns="http://www.w3.org/2000/svg">
<path d="M17.0711 2.92892C15.1823 1.04019 12.6711 0 10 0C7.32895 0 4.81766 1.04019 2.92892 2.92892C1.04019 4.81766 0 7.32895 0 10C0 12.6711 1.04019 15.1823 2.92892 17.0711C4.81766 18.9598 7.32895 20 10 20C12.6711 20 15.1823 18.9598 17.0711 17.0711C18.9598 15.1823 20 12.6711 20 10C20 7.32895 18.9598 4.81766 17.0711 2.92892ZM13.97 7.40494C14.8807 7.56851 15.719 7.78931 16.4517 8.0629C17.9398 8.61862 18.8281 9.3428 18.8281 10C18.8281 10.6572 17.9398 11.3814 16.4517 11.937C15.719 12.2107 14.8807 12.4315 13.97 12.5949C14.0567 11.7593 14.1016 10.8884 14.1016 10C14.1016 9.11163 14.0567 8.24066 13.97 7.40494ZM16.2424 3.75763C17.3801 4.89517 18.1686 6.28876 18.5551 7.80823C18.0936 7.4971 17.5272 7.21375 16.8617 6.96518C15.9676 6.63132 14.933 6.37039 13.81 6.19019C13.6296 5.06699 13.3688 4.03244 13.0348 3.13828C12.7864 2.47284 12.5029 1.90643 12.1918 1.44485C13.7112 1.83136 15.1048 2.61993 16.2424 3.75763ZM12.9297 10C12.9297 10.9561 12.8755 11.8883 12.7718 12.7718C11.8883 12.8755 10.9561 12.9297 10 12.9297C9.04388 12.9297 8.11172 12.8755 7.22824 12.7718C7.12448 11.8883 7.07031 10.9561 7.07031 10C7.07031 9.04388 7.12448 8.11172 7.22824 7.22824C8.11172 7.12448 9.04388 7.07031 10 7.07031C10.9561 7.07031 11.8883 7.12448 12.7718 7.22824C12.8755 8.11172 12.9297 9.04388 12.9297 10ZM10 1.17188C10.6572 1.17188 11.3814 2.06024 11.9371 3.54828C12.2107 4.28101 12.4315 5.11932 12.5951 6.02997C11.7595 5.9433 10.8884 5.89844 10 5.89844C9.11163 5.89844 8.24066 5.9433 7.40509 6.02997C7.56851 5.11932 7.78931 4.28101 8.06305 3.54828C8.61862 2.06024 9.3428 1.17188 10 1.17188ZM3.75763 3.75763C4.89517 2.61993 6.28876 1.83136 7.80823 1.44485C7.4971 1.90643 7.21375 2.47284 6.96518 3.13828C6.63132 4.03244 6.37039 5.06699 6.19019 6.19019C5.06699 6.37039 4.03244 6.63132 3.13828 6.96518C2.47284 7.21375 1.90643 7.4971 1.44485 7.80823C1.83136 6.28876 2.61993 4.89517 3.75763 3.75763ZM3.54828 8.06305C4.28101 7.78931 5.11932 7.56851 6.02997 7.40509C5.9433 8.24066 5.89844 9.11163 5.89844 10C5.89844 10.8884 5.9433 11.7593 6.02997 12.5949C5.11932 12.4315 4.28101 12.2107 3.54828 11.937C2.06024 11.3814 1.17188 10.6572 1.17188 10C1.17188 9.3428 2.06024 8.61862 3.54828 8.06305ZM3.75763 16.2424C2.61993 15.1048 1.83136 13.7112 1.44485 12.1918C1.90643 12.5029 2.47284 12.7863 3.13828 13.0348C4.03244 13.3687 5.06699 13.6296 6.19019 13.8098C6.37039 14.933 6.63132 15.9676 6.96518 16.8617C7.21375 17.5272 7.4971 18.0936 7.80823 18.5551C6.28876 18.1686 4.89517 17.3801 3.75763 16.2424ZM10 18.8281C9.3428 18.8281 8.61862 17.9398 8.06305 16.4517C7.78931 15.719 7.56851 14.8807 7.40509 13.97C8.24066 14.0567 9.11163 14.1016 10 14.1016C10.8884 14.1016 11.7595 14.0567 12.5951 13.97C12.4315 14.8807 12.2107 15.719 11.9371 16.4517C11.3814 17.9398 10.6572 18.8281 10 18.8281ZM16.2424 16.2424C15.1048 17.3801 13.7112 18.1686 12.1918 18.5551C12.5029 18.0936 12.7864 17.5272 13.0348 16.8617C13.3688 15.9676 13.6296 14.933 13.81 13.8098C14.933 13.6296 15.9676 13.3687 16.8617 13.0348C17.5272 12.7863 18.0936 12.5029 18.5551 12.1918C18.1686 13.7112 17.3801 15.1048 16.2424 16.2424Z" fill="#3A3E48"/>
</svg>
