<svg width="10" height="5" viewBox="0 0 10 5" fill="none" xmlns="http://www.w3.org/2000/svg">
<path d="M5.00047 0.333324C5.15624 0.33302 5.30719 0.38727 5.42713 0.486658L9.42713 3.81999C9.56328 3.93315 9.64889 4.09576 9.66515 4.27204C9.6814 4.44832 9.62696 4.62385 9.5138 4.75999C9.40064 4.89613 9.23803 4.98175 9.06175 4.998C8.88547 5.01426 8.70995 4.95982 8.5738 4.84666L5.00047 1.85999L1.42714 4.73999C1.35894 4.79537 1.28048 4.83672 1.19625 4.86168C1.11203 4.88663 1.0237 4.89469 0.936348 4.8854C0.848996 4.87611 0.76434 4.84964 0.68725 4.80753C0.610159 4.76541 0.54215 4.70847 0.487136 4.63999C0.426083 4.57144 0.379844 4.49102 0.351314 4.40378C0.322786 4.31653 0.312585 4.22433 0.321346 4.13295C0.330109 4.04158 0.357646 3.95299 0.402235 3.87276C0.446823 3.79252 0.507502 3.72235 0.58047 3.66666L4.58047 0.446658C4.70386 0.36298 4.85173 0.323077 5.00047 0.333324Z" fill="#E55241"/>
</svg>
