<svg width="24" height="24" viewBox="0 0 24 24" fill="none" xmlns="http://www.w3.org/2000/svg">
<g clip-path="url(#clip0_112_2208)">
<path d="M23.9952 7.35396C23.9952 7.35136 23.9955 7.34877 23.9955 7.34617C23.9955 4.19087 21.4377 1.63306 18.2824 1.63306C15.1271 1.63306 12.5693 4.19082 12.5693 7.34617C12.5693 10.5015 15.1274 13.0593 18.2824 13.0593C18.9309 13.0593 19.5516 12.9462 20.1325 12.7471C18.8471 20.1208 13.097 24.876 18.4273 20.9623C24.3378 16.6225 24.0018 7.52048 23.9952 7.35396Z" fill="#468E87"/>
<path d="M5.71311 13.0592C6.36158 13.0592 6.98231 12.9462 7.56341 12.747C6.27772 20.1207 0.527624 24.876 5.85795 20.9623C11.7685 16.6225 11.4326 7.52048 11.4259 7.35396C11.4259 7.35136 11.4262 7.34877 11.4262 7.34617C11.4262 4.19087 8.86841 1.63306 5.71311 1.63306C2.55776 1.63306 0 4.19082 0 7.34617C0 10.5015 2.55805 13.0592 5.71311 13.0592Z" fill="#468E87"/>
</g>
<defs>
<clipPath id="clip0_112_2208">
<rect width="24" height="24" fill="white"/>
</clipPath>
</defs>
</svg>
