<svg width="5" height="10" viewBox="0 0 5 10" fill="none" xmlns="http://www.w3.org/2000/svg">
<path d="M0.333324 5.00002C0.33302 4.84425 0.387269 4.69329 0.486657 4.57335L3.81999 0.573354C3.93315 0.43721 4.09576 0.351594 4.27204 0.33534C4.44832 0.319087 4.62385 0.373529 4.75999 0.486688C4.89613 0.599847 4.98175 0.762454 4.998 0.938738C5.01426 1.11502 4.95982 1.29054 4.84666 1.42669L1.85999 5.00002L4.73999 8.57335C4.79537 8.64154 4.83672 8.72001 4.86167 8.80423C4.88663 8.88846 4.89469 8.97679 4.8854 9.06414C4.87611 9.15149 4.84964 9.23615 4.80753 9.31324C4.76541 9.39033 4.70847 9.45834 4.63999 9.51335C4.57144 9.57441 4.49102 9.62064 4.40377 9.64917C4.31653 9.6777 4.22433 9.6879 4.13295 9.67914C4.04157 9.67038 3.95299 9.64284 3.87275 9.59825C3.79252 9.55367 3.72235 9.49299 3.66666 9.42002L0.446657 5.42002C0.36298 5.29663 0.323077 5.14875 0.333324 5.00002Z" fill="#1E222E"/>
</svg>
