<svg width="28" height="28" viewBox="0 0 28 28" fill="none" xmlns="http://www.w3.org/2000/svg">
<path d="M2.46094 24.7188H4.10156V28H15.3862L19.834 26.3594H20.5078V28H27.125V13.2344H20.5078V14.875H18.2953L13.9453 11.9751V11.2135C16.5297 9.03113 18.8672 7.12967 18.8672 4.3703C18.8672 1.96918 17.1486 0 14.7765 0C13.1532 0 12.1208 0.928833 11.5062 1.81152C10.8914 0.928833 9.85892 0 8.23581 0C5.84024 0 4.10156 1.72501 4.10156 4.10156C4.10156 6.92352 6.75027 9.18857 9.02344 11.1571V13.2344H2.46094V16.5156H0.820312V21.4375H2.46094V24.7188ZM22.1484 14.875H25.4844V26.3594H22.1484V14.875ZM17.7984 16.5156H20.5078V24.7188H19.541L15.0931 26.3594H12.3047V23.0781H10.6641C10.6641 22.3097 10.6641 20.6151 10.6641 20.6151C11.35 21.1312 12.2024 21.4375 13.125 21.4375H15.5859V19.7969H13.125C11.7681 19.7969 10.6641 18.6929 10.6641 17.3359C10.6641 16.5724 10.6641 11.7136 10.6641 10.7188C10.6641 9.64935 11.3498 8.73697 12.3047 8.39838V12.8531L17.7984 16.5156ZM5.74219 4.10156C5.74219 2.6297 6.74429 1.64062 8.23581 1.64062C10.0687 1.64062 10.65 3.75208 10.8211 4.10156H12.191C12.3419 3.79373 12.9263 1.64062 14.7765 1.64062C16.1732 1.64062 17.2266 2.81427 17.2266 4.3703C17.2266 6.18845 15.4875 7.72525 13.9453 9.05847V6.61719H13.125C11.3906 6.61719 9.90506 7.70004 9.30649 9.22467C7.1192 7.28241 5.74219 5.7659 5.74219 4.10156ZM10.6641 24.7188V26.3594C10.0685 26.3594 6.34161 26.3594 5.74219 26.3594V24.7188H10.6641ZM4.10156 23.0781V21.4375H9.02344V23.0781H4.10156ZM4.10156 14.875H9.02344V16.5156H4.10156V14.875ZM2.46094 18.1562H9.02344V19.7969H2.46094V18.1562Z" fill="#E55241"/>
</svg>
