<svg width="28" height="28" viewBox="0 0 28 28" fill="none" xmlns="http://www.w3.org/2000/svg">
<path d="M15.9503 9.44831L19.4281 3.43356L13.8474 0L9.6598 7.09783L1.72885 11.8238L0 18.7392L1.75576 20.4947L1.07986 21.6404L0.588958 27.9999L5.72167 25.5723V26.2935H13.9218V23.1103L17.0082 24.6535H22.252L27.9711 22.7886V13.1735H23.9435L15.9503 9.44831ZM14.411 2.2723L17.2097 3.9941L16.23 5.68834L13.342 4.08404L14.411 2.2723ZM12.5085 5.49694L15.409 7.10829L11.8467 13.2694L11.3592 13.0256L5.12353 18.0139L12.5085 5.49694ZM3.15457 12.8834L7.92284 10.042L2.61645 19.0361L1.81622 18.2361L3.15457 12.8834ZM5.47451 23.8751L2.44149 25.3096L2.68566 22.146L2.9685 21.6669L3.06121 21.5742C3.86251 22.3872 4.89025 22.8892 5.97054 23.0501L5.47451 23.8751ZM9.00163 24.6535H7.36165V23.9191L7.93651 22.9636C8.29967 22.8762 8.65706 22.7482 9.00163 22.5786V24.6535ZM12.2818 24.6535H10.6418V21.5391L10.7006 21.4998L12.2818 22.2902V24.6535ZM26.3311 21.5985L21.9914 23.0136H17.3953L10.5829 19.6074L8.67821 20.8769C7.35353 21.76 5.63494 21.6276 4.46471 20.6413L11.5642 14.9615L17.6551 18.0069L18.3884 16.5402L13.3162 14.004L15.1262 10.8736L23.5801 14.8134H26.3311V21.5985Z" fill="#E55241"/>
</svg>
