<svg width="28" height="28" viewBox="0 0 28 28" fill="none" xmlns="http://www.w3.org/2000/svg">
<g clip-path="url(#clip0_101_6157)">
<path d="M15.7401 12.2599L16.9001 11.0999C15.3009 9.50072 12.699 9.50072 11.0998 11.0999C9.5006 12.6991 9.5006 15.301 11.0998 16.9002C11.8994 17.6998 12.9495 18.0997 13.9999 18.0997C15.0503 18.0997 16.1005 17.6998 16.9001 16.9002L15.7401 15.7402C14.7805 16.6996 13.2191 16.6996 12.2597 15.7402C11.3002 14.7806 11.3002 13.2195 12.2597 12.2599C13.2193 11.3005 14.7805 11.3005 15.7401 12.2599Z" fill="#E55241"/>
<path d="M25.5391 11.5391C24.4697 11.5391 23.5579 12.225 23.2191 13.1797H21.3369C21.179 11.7578 20.6159 10.4566 19.7657 9.3945L21.0594 8.1008C21.9555 8.52975 23.089 8.39133 23.8608 7.61951C24.8204 6.65991 24.8204 5.09875 23.8608 4.13916C22.8993 3.17743 21.3424 3.17722 20.3805 4.13916C19.6243 4.89539 19.4647 6.02524 19.9003 6.93976L18.6055 8.23431C17.5434 7.38409 16.2422 6.82098 14.8203 6.66312V4.78088C15.7752 4.44208 16.4609 3.53033 16.4609 2.46094C16.4609 1.104 15.3569 0 14 0C12.6431 0 11.5391 1.104 11.5391 2.46094C11.5391 3.53033 12.2248 4.44208 13.1797 4.78088V6.66312C11.7578 6.82098 10.4566 7.38409 9.3945 8.23431L8.09973 6.93976C8.53531 6.02502 8.37552 4.89539 7.61951 4.13916C6.65991 3.17957 5.09854 3.17978 4.13916 4.13916C3.17957 5.09875 3.17957 6.65991 4.13916 7.61951C4.89667 8.37701 6.02567 8.5351 6.93954 8.09973L8.23431 9.3945C7.38409 10.4566 6.82098 11.7578 6.66312 13.1797H4.78088C4.44208 12.225 3.53033 11.5391 2.46094 11.5391C1.104 11.5391 0 12.6431 0 14C0 15.3569 1.104 16.4609 2.46094 16.4609C3.53033 16.4609 4.44208 15.775 4.78088 14.8203H6.66312C6.82098 16.2422 7.38409 17.5434 8.23431 18.6055L6.93954 19.9003C6.02502 19.4645 4.89517 19.6243 4.13916 20.3805C3.17957 21.3401 3.17957 22.9012 4.13916 23.8608C5.09854 24.8202 6.65991 24.8202 7.61951 23.8608C8.37573 23.1046 8.53531 21.9748 8.09973 21.0602L9.3945 19.7657C10.4566 20.6159 11.7578 21.179 13.1797 21.3369V23.2191C12.2248 23.5579 11.5391 24.4697 11.5391 25.5391C11.5391 26.896 12.6431 28 14 28C15.3569 28 16.4609 26.896 16.4609 25.5391C16.4609 24.4697 15.7752 23.5579 14.8203 23.2191V21.3369C16.2422 21.179 17.5434 20.6159 18.6055 19.7657L19.9003 21.0602C19.4647 21.975 19.6245 23.1046 20.3805 23.8608C21.3422 24.8224 22.8991 24.8228 23.8608 23.8608C24.8204 22.9012 24.8204 21.3401 23.8608 20.3805C23.0888 19.6082 21.9551 19.4702 21.0594 19.8992L19.7657 18.6055C20.6159 17.5434 21.179 16.2422 21.3369 14.8203H23.2191C23.5579 15.775 24.4697 16.4609 25.5391 16.4609C26.896 16.4609 28 15.3569 28 14C28 12.6431 26.896 11.5391 25.5391 11.5391ZM21.5407 5.29935C21.8611 4.9787 22.38 4.9787 22.7007 5.29935C23.0213 5.62 23.0215 6.13867 22.7007 6.45932C22.3802 6.77997 21.8613 6.77997 21.5407 6.45932C21.22 6.13867 21.22 5.62 21.5407 5.29935ZM6.45932 6.45932C6.13953 6.77911 5.61914 6.77933 5.29913 6.45932C4.97934 6.13953 4.97934 5.61914 5.29913 5.29935C5.61978 4.9787 6.13867 4.9787 6.45932 5.29935C6.77997 5.62 6.77997 6.13867 6.45932 6.45932ZM2.46094 14.8203C2.0087 14.8203 1.64062 14.4522 1.64062 14C1.64062 13.5478 2.0087 13.1797 2.46094 13.1797C2.91318 13.1797 3.28125 13.5478 3.28125 14C3.28125 14.4522 2.91318 14.8203 2.46094 14.8203ZM6.45932 22.7007C6.13889 23.0213 5.61978 23.0213 5.29913 22.7007C4.97934 22.3809 4.97934 21.8605 5.29913 21.5407C5.61914 21.2209 6.13953 21.2207 6.45932 21.5407C6.77997 21.8613 6.77997 22.38 6.45932 22.7007ZM21.5407 21.5407C21.8611 21.22 22.38 21.22 22.7007 21.5407C23.0213 21.8613 23.0215 22.38 22.7007 22.7009C22.3802 23.0213 21.8613 23.0213 21.5407 22.7009C21.22 22.38 21.22 21.8613 21.5407 21.5407ZM14 1.64062C14.4522 1.64062 14.8203 2.0087 14.8203 2.46094C14.8203 2.91318 14.4522 3.28125 14 3.28125C13.5478 3.28125 13.1797 2.91318 13.1797 2.46094C13.1797 2.0087 13.5478 1.64062 14 1.64062ZM14 26.3594C13.5478 26.3594 13.1797 25.9913 13.1797 25.5391C13.1797 25.0868 13.5478 24.7188 14 24.7188C14.4522 24.7188 14.8203 25.0868 14.8203 25.5391C14.8203 25.9913 14.4522 26.3594 14 26.3594ZM14 19.7422C10.8337 19.7422 8.25781 17.1663 8.25781 14C8.25781 10.8337 10.8337 8.25781 14 8.25781C17.1663 8.25781 19.7422 10.8337 19.7422 14C19.7422 17.1663 17.1663 19.7422 14 19.7422ZM25.5391 14.8203C25.0868 14.8203 24.7188 14.4522 24.7188 14C24.7188 13.5478 25.0868 13.1797 25.5391 13.1797C25.9913 13.1797 26.3594 13.5478 26.3594 14C26.3594 14.4522 25.9913 14.8203 25.5391 14.8203Z" fill="#E55241"/>
</g>
<defs>
<clipPath id="clip0_101_6157">
<rect width="28" height="28" fill="white"/>
</clipPath>
</defs>
</svg>
