<svg width="10" height="5" viewBox="0 0 10 5" fill="none" xmlns="http://www.w3.org/2000/svg">
<path d="M5.00002 4.66665C4.84425 4.66695 4.69329 4.6127 4.57335 4.51331L0.573354 1.17998C0.43721 1.06682 0.351594 0.904213 0.335341 0.727929C0.319087 0.551645 0.373529 0.376124 0.486688 0.23998C0.599847 0.103836 0.762454 0.0182197 0.938738 0.00196652C1.11502 -0.0142866 1.29054 0.0401543 1.42669 0.153313L5.00002 3.13998L8.57335 0.25998C8.64154 0.204603 8.72001 0.163249 8.80423 0.138294C8.88846 0.11334 8.97679 0.105277 9.06414 0.11457C9.15149 0.123863 9.23615 0.150327 9.31324 0.192443C9.39033 0.234559 9.45834 0.291496 9.51335 0.35998C9.57441 0.428528 9.62064 0.508945 9.64917 0.596194C9.6777 0.683443 9.6879 0.775644 9.67914 0.867019C9.67038 0.958395 9.64284 1.04698 9.59825 1.12721C9.55367 1.20745 9.49299 1.27762 9.42002 1.33331L5.42002 4.55331C5.29663 4.63699 5.14875 4.67689 5.00002 4.66665Z" fill="#3A3E48"/>
</svg>
