<svg width="20" height="18" viewBox="0 0 20 18" fill="none" xmlns="http://www.w3.org/2000/svg">
<path d="M20 7.82644C20 6.20998 18.8162 4.86483 17.2701 4.61213C16.7846 2.49625 14.8909 0.956909 12.673 0.956909C10.6894 0.956909 8.92136 2.20829 8.24553 4.04408C5.93992 4.57093 4.10755 6.40396 3.62359 8.76672C1.58247 9.02854 0 10.7769 0 12.888C0 15.1792 1.864 17.0432 4.15518 17.0432H15.0666C17.3577 17.0432 19.2217 15.1792 19.2217 12.888C19.2217 12.0281 18.9591 11.2285 18.5099 10.565C19.4259 9.97745 20 8.95996 20 7.82644ZM12.6731 2.19402C14.4365 2.19402 15.9221 3.51237 16.1287 5.26066L16.1932 5.80664H16.7429C17.8567 5.80664 18.7629 6.71274 18.7629 7.82644C18.7629 8.60569 18.3259 9.29683 17.6474 9.63394C17.0692 9.17435 16.3661 8.86524 15.5981 8.76668C15.0267 5.97683 12.5754 3.92557 9.68474 3.8911C10.3019 2.8605 11.4297 2.19402 12.6731 2.19402ZM15.0666 15.8061H4.15518C2.54614 15.8061 1.23711 14.497 1.23711 12.888C1.23711 11.279 2.54623 9.96994 4.15538 9.96994H4.70515L4.76965 9.42396C5.05905 6.97452 7.14033 5.12743 9.61085 5.12743C12.0814 5.12743 14.1626 6.97452 14.452 9.42396L14.5165 9.96994H15.0663C16.6754 9.96994 17.9846 11.279 17.9846 12.888C17.9846 14.497 16.6756 15.8061 15.0666 15.8061Z" fill="#3A3E48"/>
</svg>
