<svg width="22" height="24" viewBox="0 0 22 24" fill="none" xmlns="http://www.w3.org/2000/svg">
<path d="M20.8673 7.85905C21.1431 7.54027 21.3761 7.30732 21.3761 7.30732C21.3761 7.30732 21.2412 7.35636 21.0083 7.35636C19.4879 7.49736 17.8818 7.4054 17.0971 5.84218C17.0481 5.79313 17.0971 5.79313 17.0481 5.70118C16.8151 6.01995 16.7232 6.20386 16.3554 6.62072C16.0366 6.98854 15.6688 7.35636 15.2519 7.58931C14.835 7.86517 14.2833 7.95713 13.8235 7.68126C13.3209 7.36249 13.2228 6.71881 13.2718 6.20999C13.3638 5.65827 13.5477 5.14945 13.7806 4.64677C14.0565 4.046 14.1914 3.905 14.4243 3.58623C14.0565 3.58623 13.6458 3.63527 13.2289 3.40232C12.3094 2.85059 11.7147 1.69809 11.2979 0.735636C11.1139 0.324906 11.022 0 11.022 0C11.022 0 10.881 0.410732 10.7584 0.729507C10.2986 1.69196 9.69785 2.84446 8.7783 3.39619C8.41048 3.62914 7.99975 3.5801 7.58289 3.5801C7.80971 3.905 7.95071 4.046 8.22657 4.64064C8.45952 5.14332 8.68635 5.65214 8.73539 6.20386C8.82734 6.70655 8.68635 7.35023 8.22657 7.67514C7.7668 7.951 7.21507 7.85905 6.79821 7.58318C6.38135 7.35023 6.01354 6.98241 5.64572 6.61459C5.2779 6.19773 5.18594 6.01996 4.95299 5.69505C4.95299 5.787 4.95299 5.787 4.90395 5.83605C4.671 6.29582 4.39514 6.80463 3.84341 7.0805C3.06486 7.49736 1.96141 7.44831 0.992818 7.35636C0.808909 7.35636 0.808909 7.35636 0.625 7.30732C0.857951 7.54027 0.900863 7.54027 1.13381 7.85905C1.91236 8.73568 2.69704 9.79009 2.88095 10.8935C2.97291 11.4024 2.73995 11.905 2.55604 12.3219C2.51313 12.4139 2.51313 12.4139 2.46409 12.4629C2.73995 12.5058 2.789 12.5058 3.15681 12.6468C3.47559 12.7388 3.8005 12.8736 4.07636 13.0575C4.39514 13.2414 4.671 13.5602 4.72004 13.9771C4.76908 14.4859 4.49322 14.9457 4.16831 15.2644C3.84341 15.6384 3.43268 15.9081 3.01582 16.1411C2.789 16.2759 2.789 16.233 2.55604 16.325C2.55604 16.3679 2.55604 16.3679 2.60509 16.3679C3.29781 16.5518 4.07636 16.8277 4.58517 17.3794C4.95299 17.7472 5.04495 18.207 5.18594 18.6238C5.46181 18.348 5.55376 18.207 6.06258 17.7472C6.98212 17.0116 8.03653 16.184 9.09708 16.0001C9.59976 15.9572 10.0166 16.184 10.2925 16.3679C10.6113 16.5028 10.8442 16.6438 11.0281 16.6438C11.1691 16.6438 11.3959 16.5089 11.7208 16.3679C12.0396 16.184 12.4074 15.951 12.9163 16.0001C14.0197 16.184 15.0741 17.0116 15.9508 17.7472C16.4534 18.207 16.5944 18.348 16.8703 18.6238C16.9623 18.207 17.0971 17.7472 17.422 17.3794C17.9247 16.8277 18.7523 16.5518 19.445 16.3679C19.445 16.325 19.445 16.325 19.445 16.325C19.2611 16.233 19.2182 16.2821 18.9853 16.1411C18.5684 15.9081 18.1577 15.6323 17.8328 15.2644C17.514 14.9457 17.232 14.4859 17.281 13.9771C17.3239 13.5664 17.6488 13.2414 17.9247 13.0575C18.2006 12.8798 18.5684 12.7388 18.8933 12.6468C19.2121 12.5119 19.304 12.5119 19.537 12.4629C19.4941 12.4139 19.4941 12.4139 19.445 12.3219C19.2611 11.905 19.0711 11.4024 19.1201 10.8935C19.304 9.79009 20.1316 8.73568 20.8673 7.85905Z" fill="#E55241"/>
<path d="M10.5379 17.5571L10.0781 24.0001H11.9172L11.4575 17.5571H10.5379Z" fill="#E55241"/>
</svg>
