<svg width="20" height="20" viewBox="0 0 20 20" fill="none" xmlns="http://www.w3.org/2000/svg">
<path d="M12.5 4.375H5C4.66859 4.37537 4.35087 4.50719 4.11653 4.74153C3.88219 4.97587 3.75037 5.29359 3.75 5.625V17.5C3.75 17.6148 3.78163 17.7275 3.84144 17.8255C3.90124 17.9235 3.9869 18.0032 4.08901 18.0557C4.19112 18.1083 4.30573 18.1317 4.42027 18.1234C4.5348 18.1151 4.64483 18.0753 4.73828 18.0086L8.74945 15.143L12.7618 18.0086C12.8552 18.0753 12.9653 18.115 13.0798 18.1233C13.1943 18.1316 13.3089 18.1082 13.411 18.0557C13.5131 18.0031 13.5988 17.9235 13.6586 17.8255C13.7184 17.7274 13.75 17.6148 13.75 17.5V5.625C13.7496 5.29359 13.6178 4.97587 13.3835 4.74153C13.1491 4.50719 12.8314 4.37537 12.5 4.375ZM12.5 16.2856L9.11266 13.8664C9.00665 13.7907 8.87964 13.75 8.74937 13.75C8.61911 13.75 8.4921 13.7907 8.38609 13.8664L5 16.2854V5.625H12.5V16.2856ZM16.25 3.125V15C16.25 15.1658 16.1842 15.3247 16.0669 15.4419C15.9497 15.5592 15.7908 15.625 15.625 15.625C15.4592 15.625 15.3003 15.5592 15.1831 15.4419C15.0658 15.3247 15 15.1658 15 15V3.125H6.875C6.70924 3.125 6.55027 3.05915 6.43306 2.94194C6.31585 2.82473 6.25 2.66576 6.25 2.5C6.25 2.33424 6.31585 2.17527 6.43306 2.05806C6.55027 1.94085 6.70924 1.875 6.875 1.875H15C15.3314 1.87537 15.6491 2.00719 15.8835 2.24153C16.1178 2.47587 16.2496 2.79359 16.25 3.125Z" fill="#3A3E48"/>
</svg>
