<svg width="22" height="22" viewBox="0 0 22 22" fill="none" xmlns="http://www.w3.org/2000/svg">
<path d="M20.9413 6.89407C20.9301 6.05254 20.7725 5.21938 20.4757 4.43185C20.2183 3.76757 19.8252 3.16429 19.3215 2.66055C18.8177 2.15681 18.2144 1.76368 17.5502 1.50629C16.7728 1.21447 15.9515 1.05667 15.1213 1.03963C14.0524 0.991849 13.7135 0.978516 11.0002 0.978516C8.28683 0.978516 7.93905 0.978516 6.87794 1.03963C6.04811 1.0568 5.22721 1.21459 4.45016 1.50629C3.78578 1.7635 3.18241 2.15657 2.67864 2.66033C2.17488 3.16409 1.78181 3.76747 1.5246 4.43185C1.23219 5.20866 1.07474 6.02975 1.05905 6.85963C1.01127 7.92963 0.996826 8.26852 0.996826 10.9818C0.996826 13.6952 0.996826 14.0419 1.05905 15.1041C1.07572 15.9352 1.23238 16.7552 1.5246 17.5341C1.78225 18.1982 2.1756 18.8014 2.67953 19.3049C3.18347 19.8085 3.7869 20.2014 4.45127 20.4585C5.2262 20.7621 6.04724 20.9312 6.87905 20.9585C7.94905 21.0063 8.28794 21.0207 11.0013 21.0207C13.7146 21.0207 14.0624 21.0207 15.1235 20.9585C15.9537 20.9422 16.775 20.7847 17.5524 20.493C18.2165 20.2353 18.8196 19.842 19.3233 19.3383C19.827 18.8346 20.2202 18.2315 20.4779 17.5674C20.7702 16.7896 20.9268 15.9696 20.9435 15.1374C20.9913 14.0685 21.0057 13.7296 21.0057 11.0152C21.0035 8.30185 21.0035 7.95741 20.9413 6.89407ZM10.9935 16.113C8.15572 16.113 5.85683 13.8141 5.85683 10.9763C5.85683 8.13852 8.15572 5.83963 10.9935 5.83963C12.3558 5.83963 13.6624 6.38081 14.6257 7.34412C15.589 8.30743 16.1302 9.61397 16.1302 10.9763C16.1302 12.3386 15.589 13.6452 14.6257 14.6085C13.6624 15.5718 12.3558 16.113 10.9935 16.113ZM16.3346 6.8474C16.1773 6.84755 16.0214 6.81667 15.8761 6.75653C15.7307 6.69639 15.5986 6.60816 15.4873 6.49691C15.3761 6.38566 15.2878 6.25356 15.2277 6.10817C15.1676 5.96278 15.1367 5.80696 15.1368 5.64963C15.1368 5.49241 15.1678 5.33672 15.228 5.19147C15.2881 5.04622 15.3763 4.91424 15.4875 4.80306C15.5987 4.69189 15.7306 4.6037 15.8759 4.54354C16.0211 4.48337 16.1768 4.4524 16.334 4.4524C16.4913 4.4524 16.647 4.48337 16.7922 4.54354C16.9375 4.6037 17.0694 4.69189 17.1806 4.80306C17.2918 4.91424 17.38 5.04622 17.4401 5.19147C17.5003 5.33672 17.5313 5.49241 17.5313 5.64963C17.5313 6.31185 16.9957 6.8474 16.3346 6.8474Z" fill="white"/>
</svg>
