<svg width="5" height="10" viewBox="0 0 5 10" fill="none" xmlns="http://www.w3.org/2000/svg">
<path d="M4.66667 4.99998C4.66697 5.15575 4.61272 5.30671 4.51334 5.42665L1.18 9.42665C1.06684 9.56279 0.904237 9.64841 0.727953 9.66466C0.551669 9.68091 0.376148 9.62647 0.240003 9.51331C0.103859 9.40015 0.018243 9.23755 0.00198986 9.06126C-0.0142633 8.88498 0.0401776 8.70946 0.153337 8.57331L3.14 4.99998L0.260003 1.42665C0.204626 1.35846 0.163272 1.27999 0.138317 1.19577C0.113363 1.11154 0.1053 1.02321 0.114593 0.93586C0.123886 0.848508 0.15035 0.763852 0.192466 0.686762C0.234582 0.609671 0.291519 0.541662 0.360003 0.486648C0.428551 0.425594 0.508968 0.379355 0.596217 0.350826C0.683466 0.322298 0.775667 0.312097 0.867042 0.320858C0.958418 0.32962 1.047 0.357158 1.12724 0.401747C1.20747 0.446335 1.27764 0.507014 1.33334 0.579982L4.55334 4.57998C4.63701 4.70337 4.67692 4.85125 4.66667 4.99998Z" fill="#1E222E"/>
</svg>
