<svg width="28" height="28" viewBox="0 0 28 28" fill="none" xmlns="http://www.w3.org/2000/svg">
<path d="M13.9163 27.9776L14.0511 28L14.1859 27.9776C20.2572 26.9656 24.7113 21.6535 24.7113 15.4979V3.27869H19.2096L14.0508 0L8.89227 3.27869H3.39062V15.4979C3.39062 21.653 7.84445 26.9656 13.9163 27.9776ZM14.8709 2.46436L18.7326 4.91867H23.0711V15.4979C23.0711 20.5772 19.6766 24.914 14.8709 26.1566V21.3281C18.5559 20.9188 21.4311 17.7858 21.4311 13.9936C21.4311 10.2014 18.5559 7.06857 14.8709 6.65927V2.46436ZM19.7911 13.9936C19.7911 17.1588 17.2161 19.7339 14.0508 19.7339C10.8858 19.7339 8.31079 17.1588 8.31079 13.9936C8.31079 10.8286 10.8858 8.25354 14.0508 8.25354C17.2161 8.25354 19.7911 10.8286 19.7911 13.9936ZM5.03061 4.91867H9.36929L13.231 2.46436V6.65927C9.54596 7.06857 6.67081 10.2014 6.67081 13.9936C6.67081 17.7858 9.54596 20.9188 13.231 21.3281V26.1566C8.42529 24.914 5.03061 20.5772 5.03061 15.4979V4.91867Z" fill="#E55241"/>
<path d="M11.1522 16.893C11.9514 17.6922 13.0013 18.0918 14.0513 18.0918C15.1012 18.0918 16.1512 17.6922 16.9506 16.893L15.7908 15.7332C14.8316 16.6924 13.2709 16.6924 12.3117 15.7332C11.3526 14.7741 11.3526 13.2133 12.3117 12.2542C13.2709 11.295 14.8316 11.295 15.7908 12.2542L16.9506 11.0944C15.352 9.49587 12.7507 9.49587 11.1522 11.0944C9.55344 12.6932 9.55344 15.2942 11.1522 16.893Z" fill="#E55241"/>
</svg>
