<svg width="28" height="28" viewBox="0 0 28 28" fill="none" xmlns="http://www.w3.org/2000/svg">
<g clip-path="url(#clip0_101_6126)">
<path d="M19.1763 12.5852C20.6123 11.1879 21.4031 9.31631 21.4031 7.31508C21.4031 2.94243 17.5938 -0.530664 13.1341 -0.00130558C9.92894 0.379585 7.24711 2.93858 6.753 6.1519C6.38834 8.5227 7.1435 10.8439 8.82472 12.5207C9.45107 13.1451 9.94026 13.8812 10.2705 14.6849H9.11995V16.3227H10.7578V20.7029L14.0333 27.9453L17.3088 20.7029V16.3227H18.9466V14.6849H17.7788C18.0981 13.8881 18.5711 13.1737 19.1763 12.5852ZM14.0333 23.9711L12.8458 21.3452H15.2208L14.0333 23.9711ZM15.6709 19.7074H12.3954V16.3227H15.6709V19.7074ZM18.0342 11.4111C17.1116 12.3087 16.4314 13.4309 16.0424 14.6849H14.8521V10.7839L15.8952 8.69744L16.7296 9.53185L17.8877 8.3738L15.4466 5.93273L14.0333 8.75939L12.6197 5.93273L10.1787 8.3738L11.3367 9.53185L12.1711 8.69744L13.2143 10.7839V14.6849H12.012C11.6144 13.4375 10.921 12.2983 9.98128 11.3609C8.67412 10.0574 8.08729 8.24947 8.37163 6.40078C8.75166 3.92958 10.8358 1.92088 13.3273 1.62501C16.8766 1.2031 19.7652 3.98128 19.7652 7.31508C19.7655 8.87048 19.1506 10.325 18.0342 11.4111Z" fill="#E55241"/>
<path d="M1.75 6.49628H5.02549V8.13392H1.75V6.49628Z" fill="#E55241"/>
<path d="M4.57114 4.72089L2.11426 3.08304L3.0228 1.72034L5.47968 3.35819L4.57114 4.72089Z" fill="#E55241"/>
<path d="M4.57093 9.90955L5.47947 11.2723L3.02259 12.9101L2.11426 11.5472L4.57093 9.90955Z" fill="#E55241"/>
<path d="M23.041 6.49628H26.3165V8.13392H23.041V6.49628Z" fill="#E55241"/>
<path d="M25.9512 3.08304L23.4943 4.72089L22.5859 3.35797L25.0426 1.72034L25.9512 3.08304Z" fill="#E55241"/>
<path d="M23.4962 9.90979L25.9531 11.5474L25.0446 12.9103L22.5879 11.2725L23.4962 9.90979Z" fill="#E55241"/>
</g>
<defs>
<clipPath id="clip0_101_6126">
<rect width="28" height="28" fill="white"/>
</clipPath>
</defs>
</svg>
