<svg width="28" height="28" viewBox="0 0 28 28" fill="none" xmlns="http://www.w3.org/2000/svg">
<path d="M16.0241 20.2224L12.7428 16.9409V14.8196H14.3835V13.179H2.89844V14.8196H4.53928V16.9409L1.25781 20.2224V28H16.0241V20.2224ZM6.1799 14.8196H11.102V16.4605H6.1799V14.8196ZM5.69946 18.1011H11.5826L13.2233 19.7417H4.05862L5.69946 18.1011ZM14.3835 26.3594H2.89844V21.3826H14.3835V26.3594Z" fill="#E55241"/>
<path d="M26.6699 11.5435C26.355 7.38814 24.0758 3.24578 23.7714 2.80807L21.7854 0L19.7993 2.80807C19.1954 3.67324 16.8633 8.21464 16.8633 12.5198C16.8633 17.3519 19.6906 21.2102 19.8108 21.3721L20.946 22.8965V27.9999H22.5869V22.9473L23.7599 21.3723C23.8391 21.2659 25.7071 18.7259 26.4231 15.2428L26.6899 13.9451L26.0856 13.3403L26.7553 12.6708L26.6699 11.5435ZM24.9049 14.4798L24.816 14.9126C24.2747 17.5461 23.0148 19.5604 22.5869 20.1895V14.8196H20.946V20.1335C20.3481 19.2425 18.5041 16.1969 18.5041 12.5198C18.5041 8.18623 21.0565 3.89071 21.143 3.74972L21.7854 2.84139L22.4258 3.74694C22.8123 4.35705 24.7622 8.08369 25.0339 11.6676L25.0623 12.0434L23.7659 13.3399L24.9049 14.4798Z" fill="#E55241"/>
<path d="M4.53906 23.0232H12.7426V24.6638H4.53906V23.0232Z" fill="#E55241"/>
</svg>
