<svg width="28" height="28" viewBox="0 0 28 28" fill="none" xmlns="http://www.w3.org/2000/svg">
<path d="M26.3594 3.56366L13.125 7.94272V6.61719H3.28125V8.25781H0V16.4609H3.28125V18.1016H4.92188V26.3047H9.69592L11.3365 18.1016H13.125V16.776L26.3594 21.1551V23.0234H28V1.69531H26.3594V3.56366ZM3.28125 14.8203H1.64062V9.89844H3.28125V14.8203ZM8.35095 24.6641H6.5625V18.1016H9.66345L8.35095 24.6641ZM11.4844 16.4609H4.92188V8.25781H11.4844V16.4609ZM26.3594 19.4271L13.125 15.048V9.67072L26.3594 5.29187V19.4271Z" fill="#E55241"/>
<path d="M6.5625 9.89844H9.84375V11.5391H6.5625V9.89844Z" fill="#E55241"/>
<path d="M6.5625 13.1797H9.84375V14.8203H6.5625V13.1797Z" fill="#E55241"/>
</svg>
