<svg width="24" height="14" viewBox="0 0 24 14" fill="none" xmlns="http://www.w3.org/2000/svg">
<path d="M22.6434 1.28325C22.7989 0.766584 22.6434 0.387695 21.9078 0.387695H19.4711C18.8511 0.387695 18.5678 0.715474 18.4123 1.07547C18.4123 1.07547 17.1734 4.09658 15.4178 6.05547C14.8511 6.62547 14.5922 6.80547 14.2834 6.80547C14.1289 6.80547 13.9045 6.62547 13.9045 6.10881V1.28325C13.9045 0.663251 13.7256 0.387695 13.2089 0.387695H9.38003C8.99336 0.387695 8.76003 0.674362 8.76003 0.947696C8.76003 1.53436 9.6378 1.66992 9.72781 3.32325V6.90992C9.72781 7.69547 9.58669 7.83881 9.27558 7.83881C8.45003 7.83881 6.44114 4.80658 5.24892 1.33547C5.01669 0.661029 4.78225 0.388807 4.16003 0.388807H1.72447C1.02781 0.388807 0.888916 0.716585 0.888916 1.07658C0.888916 1.72325 1.71447 4.92325 4.73447 9.15547C6.74781 12.0455 9.58225 13.6121 12.1645 13.6121C13.7122 13.6121 13.9034 13.2644 13.9034 12.6644V10.4799C13.9034 9.78436 14.0511 9.64436 14.5411 9.64436C14.9011 9.64436 15.5211 9.82658 16.9667 11.2188C18.6178 12.8699 18.8911 13.611 19.8189 13.611H22.2545C22.95 13.611 23.2978 13.2633 23.0978 12.5766C22.8789 11.8933 22.09 10.8988 21.0434 9.72214C20.4745 9.05103 19.6245 8.32881 19.3656 7.9677C19.0045 7.50214 19.1089 7.29659 19.3656 6.88325C19.3667 6.88436 22.3345 2.70436 22.6434 1.28325Z" fill="white"/>
</svg>
